<?xml version="1.0" encoding="UTF-8"?>
<svg version="1.1" xmlns="http://www.w3.org/2000/svg" width="1600" height="1600">
<path d="M0 0 C12.2659409 6.69051322 12.2659409 6.69051322 17.8125 10.5 C24.09336876 14.76432697 30.46226117 18.87440808 36.875 22.9375 C43.37190192 27.05654464 49.86073769 31.18555425 56.3125 35.375 C63.3556228 39.94710762 70.42497676 44.47742867 77.5 49 C85.17073846 53.90374662 92.83122846 58.82204703 100.46875 63.77734375 C106.79576857 67.87773848 113.14763166 71.93902167 119.5 76 C127.17071727 80.90377997 134.83122825 85.8220469 142.46875 90.77734375 C148.79576857 94.87773848 155.14763166 98.93902167 161.5 103 C169.17071727 107.90377997 176.83122825 112.8220469 184.46875 117.77734375 C190.79576857 121.87773848 197.14763166 125.93902167 203.5 130 C210.51153652 134.48237513 217.51871201 138.9706386 224.5 143.5 C235.63218766 150.72032378 246.82039783 157.8534194 258 165 C282.57782407 180.71141782 282.57782407 180.71141782 293.47070312 187.77856445 C299.79701322 191.87864055 306.14827885 195.93943541 312.5 200 C320.17071727 204.90377997 327.83122825 209.8220469 335.46875 214.77734375 C341.79576857 218.87773848 348.14763166 222.93902167 354.5 227 C362.17071727 231.90377997 369.83122825 236.8220469 377.46875 241.77734375 C383.79576857 245.87773848 390.14763166 249.93902167 396.5 254 C404.17071727 258.90377997 411.83122825 263.8220469 419.46875 268.77734375 C425.79576857 272.87773848 432.14763166 276.93902167 438.5 281 C446.17071727 285.90377997 453.83122825 290.8220469 461.46875 295.77734375 C467.79576857 299.87773848 474.14763166 303.93902167 480.5 308 C488.17071727 312.90377997 495.83122825 317.8220469 503.46875 322.77734375 C509.79576857 326.87773848 516.14763166 330.93902167 522.5 335 C530.17071727 339.90377997 537.83122825 344.8220469 545.46875 349.77734375 C551.79576857 353.87773848 558.14763166 357.93902167 564.5 362 C572.17071727 366.90377997 579.83122825 371.8220469 587.46875 376.77734375 C593.79576857 380.87773848 600.14763166 384.93902167 606.5 389 C614.17071727 393.90377997 621.83122825 398.8220469 629.46875 403.77734375 C635.79576857 407.87773848 642.14763166 411.93902167 648.5 416 C655.51153652 420.48237513 662.51871201 424.9706386 669.5 429.5 C680.63218766 436.72032378 691.82039783 443.8534194 703 451 C727.57782407 466.71141782 727.57782407 466.71141782 738.47070312 473.77856445 C744.79701322 477.87864055 751.14827885 481.93943541 757.5 486 C765.17071727 490.90377997 772.83122825 495.8220469 780.46875 500.77734375 C786.79576865 504.87773853 793.1476385 508.93901084 799.5 513 C807.41616903 518.06086543 815.32884439 523.12650231 823.20483398 528.24975586 C826.50316456 530.39397899 829.81259447 532.51607303 833.1484375 534.6015625 C833.8081958 535.01672119 834.4679541 535.43187988 835.14770508 535.85961914 C836.39121895 536.6407989 837.6382801 537.41637047 838.8894043 538.18530273 C840.29425346 539.07080994 841.65302251 540.02872463 843 541 C843 541.66 843 542.32 843 543 C841.58569336 544.078125 841.58569336 544.078125 839.58984375 545.25 C838.85540039 545.68803955 838.12095703 546.1260791 837.36425781 546.57739258 C836.56342773 547.04685303 835.76259766 547.51631348 834.9375 548 C829.1175323 551.48046835 823.36281427 555.00619939 817.75 558.8125 C811.60958493 562.96347096 805.38462549 566.9686994 799.125 570.9375 C792.62823693 575.05676648 786.13926475 579.18555266 779.6875 583.375 C772.6443772 587.94710762 765.57502324 592.47742867 758.5 597 C751.48844515 601.48234399 744.4812121 605.9705231 737.5 610.5 C729.42977407 615.73603944 721.32401525 620.91607597 713.21875 626.09765625 C707.30170766 629.88197823 701.39218382 633.67709502 695.5 637.5 C687.42977407 642.73603944 679.32401525 647.91607597 671.21875 653.09765625 C665.30170766 656.88197823 659.39218382 660.67709502 653.5 664.5 C645.42977407 669.73603944 637.32401525 674.91607597 629.21875 680.09765625 C623.30170766 683.88197823 617.39218382 687.67709502 611.5 691.5 C603.42977407 696.73603944 595.32401525 701.91607597 587.21875 707.09765625 C581.30170766 710.88197823 575.39218382 714.67709502 569.5 718.5 C561.42977407 723.73603944 553.32401525 728.91607597 545.21875 734.09765625 C539.30170766 737.88197823 533.39218382 741.67709502 527.5 745.5 C519.42977407 750.73603944 511.32401525 755.91607597 503.21875 761.09765625 C497.30170686 764.88197874 491.39224766 768.67719264 485.5 772.5 C473.27614538 780.42837768 460.98685095 788.25513952 448.7109375 796.10253906 C437.96813079 802.9706282 427.22593713 809.83873479 416.52929688 816.77856445 C409.1136306 821.58465134 401.66419372 826.33789045 394.21875 831.09765625 C388.30170766 834.88197823 382.39218382 838.67709502 376.5 842.5 C368.42977407 847.73603944 360.32401525 852.91607597 352.21875 858.09765625 C346.30170766 861.88197823 340.39218382 865.67709502 334.5 869.5 C326.42977407 874.73603944 318.32401525 879.91607597 310.21875 885.09765625 C304.30170766 888.88197823 298.39218382 892.67709502 292.5 896.5 C284.42977407 901.73603944 276.32401525 906.91607597 268.21875 912.09765625 C262.30170766 915.88197823 256.39218382 919.67709502 250.5 923.5 C242.42977407 928.73603944 234.32401525 933.91607597 226.21875 939.09765625 C220.30170766 942.88197823 214.39218382 946.67709502 208.5 950.5 C200.42977407 955.73603944 192.32401525 960.91607597 184.21875 966.09765625 C178.30170766 969.88197823 172.39218382 973.67709502 166.5 977.5 C158.42977407 982.73603944 150.32401525 987.91607597 142.21875 993.09765625 C136.30170766 996.88197823 130.39218382 1000.67709502 124.5 1004.5 C116.42977407 1009.73603944 108.32401525 1014.91607597 100.21875 1020.09765625 C94.30170766 1023.88197823 88.39218382 1027.67709502 82.5 1031.5 C74.42977407 1036.73603944 66.32401525 1041.91607597 58.21875 1047.09765625 C52.30170546 1050.88197964 46.39235584 1054.67735792 40.5 1058.5 C33.86316581 1062.80220666 27.21502967 1067.08674954 20.55786133 1071.35742188 C18.91738534 1072.41029664 17.27801364 1073.46489135 15.63867188 1074.51953125 C14.62095703 1075.17179687 13.60324219 1075.8240625 12.5546875 1076.49609375 C11.65218262 1077.07544678 10.74967773 1077.6547998 9.81982422 1078.25170898 C6.59626585 1080.25031517 3.29312105 1082.11821654 0 1084 C0 985.33 0 886.66 0 785 C-239.91 785 -479.82 785 -727 785 C-727 624.62 -727 464.24 -727 299 C-487.09 299 -247.18 299 0 299 C0 200.33 0 101.66 0 0 Z " fill="#f8fafc" transform="translate(727,246)"/>
</svg>
